HIERARCHY
ROOT Hips
{
    OFFSET 0.000000 0.000000 0.000000
    CHANNELS 6 Xposition Yposition Zposition Zrotation Xrotation Yrotation
    JOINT Spine
    {
        OFFSET 0.000002 7.164412 0.000002
        CHANNELS 3 Zrotation Xrotation Yrotation
        JOINT Spine1
        {
            OFFSET -0.000001 20.126801 -0.000002
            CHANNELS 3 Zrotation Xrotation Yrotation
            JOINT Neck
            {
                OFFSET 0.000000 21.094069 0.000000
                CHANNELS 3 Zrotation Xrotation Yrotation
                JOINT Head
                {
                    OFFSET -0.000001 12.838277 1.776080
                    CHANNELS 3 Zrotation Xrotation Yrotation
                    End Site
                    {
                        OFFSET 0.000000 17.760757 0.000000
                    }
                }
            }
            JOINT LeftShoulder
            {
                OFFSET 3.550527 15.465700 -0.908803
                CHANNELS 3 Zrotation Xrotation Yrotation
                JOINT LeftArm
                {
                    OFFSET 12.513296 -0.000006 -0.000002
                    CHANNELS 3 Zrotation Xrotation Yrotation
                    JOINT LeftForeArm
                    {
                        OFFSET 24.225996 -0.000003 0.000001
                        CHANNELS 3 Zrotation Xrotation Yrotation
                        JOINT LeftHand
                        {
                            OFFSET 20.711399 -0.000005 -0.000004
                            CHANNELS 3 Zrotation Xrotation Yrotation
                            JOINT LeftHandThumb1
                            {
                                OFFSET 2.121969 -2.411331 3.375859
                                CHANNELS 3 Zrotation Xrotation Yrotation
                                JOINT LeftHandThumb2
                                {
                                    OFFSET 2.803208 0.000003 0.000001
                                    CHANNELS 3 Zrotation Xrotation Yrotation
                                    JOINT LeftHandThumb3
                                    {
                                        OFFSET 2.395929 0.000004 -0.000003
                                        CHANNELS 3 Zrotation Xrotation Yrotation
                                        End Site
                                        {
                                            OFFSET 2.127676 0.000000 0.000000
                                        }
                                    }
                                }
                            }
                            JOINT LeftHandIndex1
                            {
                                OFFSET 8.680775 0.000005 3.375860
                                CHANNELS 3 Zrotation Xrotation Yrotation
                                JOINT LeftHandIndex2
                                {
                                    OFFSET 4.218178 -0.000000 -0.000000
                                    CHANNELS 3 Zrotation Xrotation Yrotation
                                    JOINT LeftHandIndex3
                                    {
                                        OFFSET 2.109086 -0.000004 0.000002
                                        CHANNELS 3 Zrotation Xrotation Yrotation
                                        End Site
                                        {
                                            OFFSET 1.872952 0.000000 0.000000
                                        }
                                    }
                                }
                            }
                            JOINT LeftHandMiddle1
                            {
                                OFFSET 8.680778 -0.000002 1.118860
                                CHANNELS 3 Zrotation Xrotation Yrotation
                                JOINT LeftHandMiddle2
                                {
                                    OFFSET 4.640003 -0.000004 -0.000001
                                    CHANNELS 3 Zrotation Xrotation Yrotation
                                    JOINT LeftHandMiddle3
                                    {
                                        OFFSET 2.530911 0.000002 -0.000001
                                        CHANNELS 3 Zrotation Xrotation Yrotation
                                        End Site
                                        {
                                            OFFSET 2.247544 0.000000 0.000000
                                        }
                                    }
                                }
                            }
                            JOINT LeftHandRing1
                            {
                                OFFSET 8.198517 0.000004 -1.118860
                                CHANNELS 3 Zrotation Xrotation Yrotation
                                JOINT LeftHandRing2
                                {
                                    OFFSET 4.218183 -0.000002 -0.000002
                                    CHANNELS 3 Zrotation Xrotation Yrotation
                                    JOINT LeftHandRing3
                                    {
                                        OFFSET 2.109094 0.000005 -0.000000
                                        CHANNELS 3 Zrotation Xrotation Yrotation
                                        End Site
                                        {
                                            OFFSET 1.872952 0.000000 0.000000
                                        }
                                    }
                                }
                            }
                            JOINT LeftHandPinky1
                            {
                                OFFSET 7.716254 0.000002 -3.375863
                                CHANNELS 3 Zrotation Xrotation Yrotation
                                JOINT LeftHandPinky2
                                {
                                    OFFSET 3.374536 0.000002 0.000001
                                    CHANNELS 3 Zrotation Xrotation Yrotation
                                    JOINT LeftHandPinky3
                                    {
                                        OFFSET 1.687274 -0.000002 -0.000004
                                        CHANNELS 3 Zrotation Xrotation Yrotation
                                        End Site
                                        {
                                            OFFSET 1.498360 0.000000 0.000000
                                        }
                                    }
                                }
                            }
                        }
                    }
                }
            }
            JOINT RightShoulder
            {
                OFFSET -3.550529 15.465699 -0.908801
                CHANNELS 3 Zrotation Xrotation Yrotation
                JOINT RightArm
                {
                    OFFSET -12.513299 -0.000001 -0.000000
                    CHANNELS 3 Zrotation Xrotation Yrotation
                    JOINT RightForeArm
                    {
                        OFFSET -24.226000 -0.000003 -0.000001
                        CHANNELS 3 Zrotation Xrotation Yrotation
                        JOINT RightHand
                        {
                            OFFSET -20.711397 -0.000003 -0.000002
                            CHANNELS 3 Zrotation Xrotation Yrotation
                            JOINT RightHandThumb1
                            {
                                OFFSET -2.121970 -2.411331 3.375859
                                CHANNELS 3 Zrotation Xrotation Yrotation
                                JOINT RightHandThumb2
                                {
                                    OFFSET -2.803209 -0.000004 0.000004
                                    CHANNELS 3 Zrotation Xrotation Yrotation
                                    JOINT RightHandThumb3
                                    {
                                        OFFSET -2.395928 0.000004 -0.000003
                                        CHANNELS 3 Zrotation Xrotation Yrotation
                                        End Site
                                        {
                                            OFFSET -2.127676 0.000000 0.000000
                                        }
                                    }
                                }
                            }
                            JOINT RightHandIndex1
                            {
                                OFFSET -8.680779 0.000001 3.375859
                                CHANNELS 3 Zrotation Xrotation Yrotation
                                JOINT RightHandIndex2
                                {
                                    OFFSET -4.218179 0.000003 -0.000001
                                    CHANNELS 3 Zrotation Xrotation Yrotation
                                    JOINT RightHandIndex3
                                    {
                                        OFFSET -2.109090 -0.000002 0.000000
                                        CHANNELS 3 Zrotation Xrotation Yrotation
                                        End Site
                                        {
                                            OFFSET -1.872952 0.000000 0.000000
                                        }
                                    }
                                }
                            }
                            JOINT RightHandMiddle1
                            {
                                OFFSET -8.680779 -0.000002 1.118859
                                CHANNELS 3 Zrotation Xrotation Yrotation
                                JOINT RightHandMiddle2
                                {
                                    OFFSET -4.639998 0.000003 -0.000001
                                    CHANNELS 3 Zrotation Xrotation Yrotation
                                    JOINT RightHandMiddle3
                                    {
                                        OFFSET -2.530910 -0.000000 -0.000000
                                        CHANNELS 3 Zrotation Xrotation Yrotation
                                        End Site
                                        {
                                            OFFSET -2.247544 0.000000 0.000000
                                        }
                                    }
                                }
                            }
                            JOINT RightHandRing1
                            {
                                OFFSET -8.198519 -0.000004 -1.118859
                                CHANNELS 3 Zrotation Xrotation Yrotation
                                JOINT RightHandRing2
                                {
                                    OFFSET -4.218180 -0.000005 0.000000
                                    CHANNELS 3 Zrotation Xrotation Yrotation
                                    JOINT RightHandRing3
                                    {
                                        OFFSET -2.109090 0.000002 0.000002
                                        CHANNELS 3 Zrotation Xrotation Yrotation
                                        End Site
                                        {
                                            OFFSET -1.872952 0.000000 0.000000
                                        }
                                    }
                                }
                            }
                            JOINT RightHandPinky1
                            {
                                OFFSET -7.716249 0.000004 -3.375858
                                CHANNELS 3 Zrotation Xrotation Yrotation
                                JOINT RightHandPinky2
                                {
                                    OFFSET -3.374539 0.000003 -0.000000
                                    CHANNELS 3 Zrotation Xrotation Yrotation
                                    JOINT RightHandPinky3
                                    {
                                        OFFSET -1.687270 -0.000004 -0.000001
                                        CHANNELS 3 Zrotation Xrotation Yrotation
                                        End Site
                                        {
                                            OFFSET -1.498360 0.000000 0.000000
                                        }
                                    }
                                }
                            }
                        }
                    }
                }
            }
        }
    }
    JOINT LeftUpLeg
    {
        OFFSET 8.880377 0.000003 0.000001
        CHANNELS 3 Zrotation Xrotation Yrotation
        JOINT LeftLeg
        {
            OFFSET -0.000000 -40.387413 0.000001
            CHANNELS 3 Zrotation Xrotation Yrotation
            JOINT LeftFoot
            {
                OFFSET -0.000000 -36.911304 0.000000
                CHANNELS 3 Zrotation Xrotation Yrotation
                JOINT LeftToeBase
                {
                    OFFSET 0.000003 -5.772240 13.320597
                    CHANNELS 3 Zrotation Xrotation Yrotation
                    End Site
                    {
                        OFFSET 0.000000 0.000000 3.552151
                    }
                }
            }
        }
    }
    JOINT RightUpLeg
    {
        OFFSET -8.880380 -0.000003 -0.000001
        CHANNELS 3 Zrotation Xrotation Yrotation
        JOINT RightLeg
        {
            OFFSET 0.000001 -40.387405 0.000000
            CHANNELS 3 Zrotation Xrotation Yrotation
            JOINT RightFoot
            {
                OFFSET -0.000001 -36.911304 -0.000001
                CHANNELS 3 Zrotation Xrotation Yrotation
                JOINT RightToeBase
                {
                    OFFSET 0.000000 -5.772241 13.320600
                    CHANNELS 3 Zrotation Xrotation Yrotation
                    End Site
                    {
                        OFFSET 0.000000 0.000000 3.552151
                    }
                }
            }
        }
    }
}
MOTION
Frames: 5
Frame Time: 0.013889
-6.053137    78.833977    -20.254169    11.461756    3.646422    -8.510393    -0.059696    -10.224919    -0.336284    7.719120    12.455951    -2.000374    -9.169474    -13.529431    12.458674    -1.412629    5.677703    14.784125    6.155614    6.259025    -5.117810    -10.468373    53.619579    -26.422464    -62.708656    12.283195    -96.263969    11.806015    -30.674326    3.902327    44.334484    21.296408    -51.112125    -20.076992    -3.504825    23.067112    -0.000000    0.000000    -0.000000    4.607368    17.945522    4.307214    4.382761    0.000000    0.000002    4.382771    0.000002    0.000002    3.765211    8.980899    2.276192    3.718988    -0.000003    0.000004    3.718982    -0.000002    0.000000    3.429214    -8.984151    1.421173    3.387099    0.000000    0.000002    3.387083    -0.000002    -0.000000    3.212108    -17.973492    2.762200    3.055202    -0.000001    0.000002    3.055195    0.000000    -0.000002    4.068470    -1.014883    7.190616    24.141312    18.845657    22.944504    75.520279    25.778090    96.407776    31.178738    -26.269341    -2.100931    -52.852657    17.171654    46.544964    1.748684    4.347663    -22.930832    -0.000000    0.000000    -0.000000    27.100992    16.132221    5.773747    25.952227    0.000002    0.000010    25.952236    0.000000    0.000000    24.909304    8.174674    3.155416    24.639248    0.000006    0.000012    24.639257    0.000006    -0.000003    24.247444    -8.217380    -4.102519    23.982784    0.000002    0.000008    23.982759    0.000003    -0.000004    24.389662    -16.484667    -8.240715    23.326283    0.000000    0.000002    23.326267    0.000000    0.000001    -16.336277    -37.638695    -4.883413    -0.000003    65.489914    0.000004    3.445542    10.141694    6.319292    0.000000    0.133518    -0.000001    -13.903142    -26.298279    -9.022662    -0.000001    50.025871    0.000002    2.690479    -24.896343    4.913331    -0.000000    -0.573446    0.000001    
-6.031424    78.664192    -20.272203    11.467391    3.544389    -8.393596    -0.071852    -10.090178    -0.410136    7.894728    12.505472    -2.117394    -8.937894    -13.422623    12.446885    -1.246668    5.693352    14.690868    6.221362    6.237344    -5.097241    -10.317795    53.494270    -26.627489    -62.620178    12.500671    -96.396194    12.303009    -30.799112    4.131502    44.253254    21.432919    -51.009052    -20.080933    -3.506502    23.066881    -0.000000    0.000000    -0.000000    4.676454    17.943880    4.285933    4.448500    0.000002    -0.000002    4.448510    0.000000    0.000002    3.850934    8.980018    2.262811    3.803665    0.000000    0.000001    3.803672    -0.000002    0.000006    3.524528    -8.983262    1.392925    3.481237    0.000002    -0.000002    3.481236    0.000001    0.000000    3.321015    -17.971670    2.709545    3.158821    -0.000000    -0.000001    3.158827    0.000002    -0.000000    4.383018    -0.933433    7.247587    24.206636    19.018616    22.689796    75.551262    25.215277    96.264282    31.678606    -26.091208    -2.048870    -52.821304    17.143297    46.611229    1.758367    4.343557    -22.931568    -0.000000    0.000000    -0.000000    27.618055    16.060940    6.124841    26.454111    -0.000007    -0.000000    26.454109    -0.000000    -0.000002    25.501736    8.135506    3.318610    25.226992    -0.000008    -0.000006    25.226990    0.000006    -0.000003    24.883282    -8.176369    -4.074490    24.613432    -0.000012    -0.000007    24.613441    0.000007    0.000001    25.086090    -16.397566    -8.168868    23.999870    -0.000011    -0.000001    23.999880    0.000004    -0.000004    -16.508160    -37.821751    -5.059763    0.000001    65.960632    -0.000002    3.407613    10.234644    6.396333    0.000001    0.026754    -0.000001    -13.983111    -26.478659    -9.034866    0.000002    50.670532    -0.000003    2.659038    -25.201666    4.796644    -0.000000    -0.628574    -0.000001    
-5.995502    78.450783    -20.286167    11.474412    3.408632    -8.224961    -0.086466    -9.924247    -0.501690    8.124378    12.582171    -2.267798    -8.584948    -13.310289    12.449675    -1.004417    5.740491    14.581327    6.341956    6.218588    -5.108963    -10.045772    53.320107    -27.008913    -62.484737    12.738354    -96.552231    12.902933    -30.890829    4.494401    44.155972    21.548975    -50.965996    -20.063650    -3.499158    23.067930    -0.000000    0.000000    -0.000000    4.754230    17.942001    4.261971    4.522512    0.000003    -0.000004    4.522527    0.000005    -0.000001    3.943295    8.979048    2.248396    3.894890    0.000002    -0.000001    3.894896    0.000000    0.000000    3.625596    -8.982288    1.360644    3.581073    -0.000000    -0.000002    3.581076    -0.000002    -0.000000    3.435007    -17.969700    2.648586    3.267274    0.000002    0.000002    3.267253    -0.000001    0.000000    4.763232    -0.820035    7.351307    24.372719    19.210594    22.344803    75.454666    24.360651    96.108704    32.312328    -25.839119    -2.022687    -52.776936    17.103291    46.704861    1.786548    4.331680    -22.933697    -0.000000    0.000000    -0.000000    28.290854    15.966263    6.590637    27.107706    0.000006    0.000010    27.107706    -0.000003    0.000002    26.279306    8.082799    3.534624    25.998600    0.000010    -0.000004    25.998606    0.000001    0.000005    25.720484    -8.120842    -4.024766    25.444040    0.000008    -0.000012    25.444054    0.000007    -0.000001    26.004881    -16.279028    -8.048303    24.889498    0.000003    -0.000002    24.889494    -0.000002    0.000001    -16.732792    -38.083778    -5.255754    -0.000002    66.617165    0.000002    3.415269    10.337699    6.462244    -0.000001    -0.168766    0.000000    -14.095611    -26.680399    -9.058802    0.000002    51.464165    -0.000003    2.660205    -25.569105    4.635083    -0.000000    -0.694003    -0.000000    
-5.960719    78.295372    -20.289957    11.477146    3.307520    -8.067015    -0.099514    -9.826115    -0.583092    8.274722    12.633364    -2.387626    -8.277271    -13.214581    12.496925    -0.796175    5.847989    14.530872    6.438568    6.206329    -5.120660    -9.760977    53.195274    -27.380001    -62.455536    12.909492    -96.646194    13.367558    -30.892120    4.741502    44.094131    21.605112    -50.968964    -20.033997    -3.486547    23.069735    -0.000000    0.000000    -0.000000    4.888326    17.938681    4.220657    4.650165    0.000000    0.000001    4.650161    -0.000002    0.000002    4.046346    8.977937    2.232311    3.996700    0.000005    -0.000003    3.996697    -0.000002    0.000003    3.715578    -8.981400    1.331155    3.669976    0.000001    -0.000000    3.669966    -0.000000    -0.000002    3.514853    -17.968279    2.586145    3.343246    0.000001    -0.000000    3.343242    0.000001    -0.000000    5.034895    -0.720161    7.390825    24.612553    19.339428    22.059378    75.440239    23.693913    95.958572    32.908638    -25.778112    -2.069634    -52.742573    17.072378    46.777344    1.808048    4.322601    -22.935329    -0.000000    0.000000    -0.000000    28.787277    15.895012    6.926202    27.590345    -0.000001    0.000011    27.590347    -0.000002    -0.000007    26.852293    8.043015    3.690167    26.567303    0.000005    0.000007    26.567301    -0.000004    -0.000004    26.336945    -8.078843    -3.977862    26.055779    0.000001    0.000002    26.055794    -0.000002    -0.000007    26.680407    -16.189240    -7.939351    25.544275    0.000006    0.000012    25.544268    -0.000004    -0.000002    -16.935926    -38.272827    -5.429284    -0.000001    67.126961    0.000003    3.463523    10.424324    6.548523    -0.000000    -0.286247    -0.000000    -14.213660    -26.809259    -9.140804    0.000002    52.050182    -0.000004    2.698843    -25.837112    4.567548    0.000000    -0.730262    0.000000    
-5.915288    78.143433    -20.298159    11.478005    3.214317    -7.871965    -0.112522    -9.726616    -0.665994    8.431722    12.668132    -2.508436    -8.012053    -13.106673    12.471004    -0.602931    5.997291    14.414181    6.536847    6.172057    -5.128760    -9.367721    53.061596    -27.871866    -62.510529    13.118714    -96.735428    13.973429    -30.932709    5.041251    44.019691    21.676645    -50.965694    -20.013628    -3.477889    23.070978    -0.000000    0.000000    -0.000000    5.068406    17.934095    4.165213    4.821526    0.000000    0.000003    4.821522    0.000002    -0.000003    4.175536    8.976509    2.212157    4.124299    -0.000002    0.000002    4.124288    -0.000002    -0.000002    3.822620    -8.980306    1.302705    3.775673    -0.000001    0.000000    3.775676    -0.000000    -0.000001    3.602983    -17.966667    2.523006    3.427071    0.000002    -0.000002    3.427065    -0.000000    -0.000002    5.239599    -0.587636    7.400301    24.821972    19.499201    21.759140    75.547287    23.102966    95.774811    33.354160    -25.629496    -1.929779    -52.698662    17.032990    46.869839    1.835206    4.311147    -22.937366    -0.000000    0.000000    -0.000000    29.269758    15.824615    7.240785    28.059786    0.000007    -0.000001    28.059771    -0.000005    0.000008    27.401340    8.004141    3.836753    27.112364    0.000000    0.000002    27.112364    -0.000001    -0.000004    26.924170    -8.037969    -3.915645    26.638670    0.000001    0.000002    26.638666    0.000004    0.000001    27.320194    -16.102148    -7.801633    26.164965    -0.000003    0.000001    26.164949    -0.000003    -0.000004    -17.200727    -38.477749    -5.667649    -0.000000    67.655151    0.000000    3.534474    10.519083    6.680236    0.000002    -0.332321    0.000000    -14.376649    -26.927660    -9.324187    -0.000001    52.621498    0.000003    2.771310    -26.065893    4.544307    0.000000    -0.758649    -0.000002    
